# xmcd CD database file
#
# Track frame offsets:
#	150
#	19450
#	36585
#	53395
#	66340
#	87220
#	107942
#	134420
#	158637
#	171010
#	185490
#	202097
#	221600
#	252275
#	266367
#	279355
#
# Disc length: 3968 seconds
#
# Revision: 1
# Processed by: cddbd v1.5.2PL0 Copyright (c) Steve Scherf et al.
# Submitted via: CDex 1.70beta2
#
DISCID=eb0f7e10
DTITLE=Varios Artistas - Los Victoriosos de la Salsa vol1
DYEAR=1990
DGENRE=Salsa
TTITLE0=Estas Equivocado
TTITLE1=Consuelate Como Yo
TTITLE2=Yo Soy El Son Cubano
TTITLE3=Margot
TTITLE4=Llueve Que Llueve
TTITLE5=Tu Lo Mataste
TTITLE6=Leal
TTITLE7=Sanson Batalla
TTITLE8=Ya Llego La Pachanga
TTITLE9=Guapachando
TTITLE10=Caridad, Tu Son Hija De Ochun
TTITLE11=Mulato Rumbero
TTITLE12=Reflexiones Mías
TTITLE13=La Pachanga Se Baila Asi
TTITLE14=A Bailar Pachanga
TTITLE15=Anita Tun Tun
EXTD=YEAR: 1990
EXTT0=
EXTT1=
EXTT2=
EXTT3=
EXTT4=
EXTT5=
EXTT6=
EXTT7=
EXTT8=
EXTT9=
EXTT10=
EXTT11=
EXTT12=
EXTT13=
EXTT14=
EXTT15=
PLAYORDER=
